<svg xmlns="http://www.w3.org/2000/svg" viewBox="0 0 128 128" width="128" height="128">
  <rect width="128" height="128" fill="#F7DF1E"/>
  <path d="M2 2h124v124H2z" fill="#F7DF1E"/>
  <path fill="#323330" d="M67.314 116.224c3.293 5.386 7.585 9.33 15.17 9.33 6.367 0 10.443-3.183 10.443-7.576 0-5.258-4.183-7.12-11.19-10.183l-3.84-1.648c-11.085-4.718-18.443-10.63-18.443-23.124 0-11.51 8.77-20.283 22.47-20.283 9.763 0 16.767 3.392 21.807 12.27l-11.92 7.65c-2.627-4.718-5.456-6.574-9.887-6.574-4.504 0-7.353 2.854-7.353 6.574 0 4.61 2.854 6.474 9.454 9.33l3.84 1.647c13.066 5.607 20.424 11.32 20.424 24.166 0 13.845-10.876 21.417-25.49 21.417-14.293 0-23.533-6.787-28.033-15.712zm-51.43 1.327c2.413 4.28 4.607 7.894 9.854 7.894 5.03 0 8.21-1.97 8.21-9.63V63.544h14.67v52.554c0 15.87-9.303 23.082-22.886 23.082-12.27 0-19.38-6.35-23.02-13.99z"/>
</svg>
