<svg xmlns="http://www.w3.org/2000/svg" viewBox="0 0 128 128" width="128" height="128">
  <rect width="128" height="128" rx="16" fill="#1a1a1a"/>
  <path fill="#83CD29" d="M64 16L18 42v44l46 26 46-26V42L64 16zm0 8.5l38.5 22.25v10.5L64 35.5 25.5 57.25v-10.5L64 24.5zM22 52.25L60.5 74v25.5l-38.5-22V52.25zm84 0v25.25L67.5 99.5V74L106 52.25z"/>
  <path fill="#fff" d="M64 44c-11.046 0-20 8.954-20 20s8.954 20 20 20 20-8.954 20-20-8.954-20-20-20zm0 8c6.627 0 12 5.373 12 12s-5.373 12-12 12-12-5.373-12-12 5.373-12 12-12z"/>
</svg>
