<svg xmlns="http://www.w3.org/2000/svg" viewBox="0 0 128 128" width="128" height="128">
  <rect width="128" height="128" rx="16" fill="#0EA5E9"/>
  <path fill="white" d="M64 28C48.533 28 39.467 35.733 36 51.2c5.6-7.467 12.133-10.267 19.6-8.4 4.261 1.065 7.307 4.16 10.68 7.587C71.52 55.787 78.08 62.4 92 62.4c15.467 0 24.533-7.733 28-23.2-5.6 7.467-12.133 10.267-19.6 8.4-4.261-1.065-7.307-4.16-10.68-7.587C84.48 34.613 77.92 28 64 28zM36 62.4C20.533 62.4 11.467 70.133 8 85.6c5.6-7.467 12.133-10.267 19.6-8.4 4.261 1.065 7.307 4.16 10.68 7.587C43.52 90.187 50.08 96.8 64 96.8c15.467 0 24.533-7.733 28-23.2-5.6 7.467-12.133 10.267-19.6 8.4-4.261-1.065-7.307-4.16-10.68-7.587C56.48 69.013 49.92 62.4 36 62.4z"/>
</svg>
